<svg width="66" height="40" viewBox="0 0 66 40" fill="none" xmlns="http://www.w3.org/2000/svg">
<path id="Vector" d="M10.4543 0.799316V9.9436H0.00366211V32.0578H16.9859V0.799316H10.4543ZM10.4543 26.9258H6.53529V15.2622H10.4543V26.9258ZM19.5986 9.9436H26.1302V32.1511H19.5986V9.9436ZM19.5986 0.799316H26.1302V7.33095H19.5986V0.799316ZM28.7428 9.9436V32.0578H39.1934V34.6705H28.7428V39.9891H45.7251V9.9436H28.7428ZM39.1934 26.9258H35.2745V15.2622H39.1934V26.9258ZM48.3377 9.9436V32.0578H58.7883V34.6705H48.3377V39.9891H65.32V9.9436H48.3377ZM58.7883 26.9258H54.8694V15.2622H58.7883V26.9258Z" fill="#757385"/>
</svg>
