<svg width="104" height="29" viewBox="0 0 104 29" fill="none" xmlns="http://www.w3.org/2000/svg">
<g id="Group 9">
<path id="Vector" fill-rule="evenodd" clip-rule="evenodd" d="M43.0364 23.5826H42.9901C43.0109 23.5826 43.0248 23.6057 43.0456 23.608H43.0595L43.0364 23.5849V23.5826ZM43.0456 23.608C42.8307 23.6103 42.2897 23.7236 41.7188 23.7236C39.9158 23.7236 39.2917 22.8914 39.2917 21.805V14.5676H42.967C43.1751 14.5676 43.3369 14.3827 43.3369 14.1284V10.1988C43.3369 9.99081 43.152 9.80589 42.967 9.80589H39.2917V4.92857C39.2917 4.74365 39.1761 4.62807 38.9681 4.62807H33.9752C33.7672 4.62807 33.6516 4.74365 33.6516 4.92857V9.94458C33.6516 9.94458 31.132 10.5687 30.9702 10.5918C30.7853 10.638 30.6697 10.7998 30.6697 10.9848V14.1284C30.6697 14.3827 30.8547 14.5676 31.0627 14.5676H33.6285V22.1494C33.6285 27.7895 37.5581 28.3674 40.2394 28.3674C41.4645 28.3674 42.9439 27.9745 43.1751 27.8589C43.3138 27.8126 43.3831 27.6508 43.3831 27.489V24.0217C43.3863 23.9234 43.3539 23.8272 43.2919 23.7508C43.2299 23.6744 43.1425 23.6229 43.0456 23.6057V23.608ZM97.8195 18.5203C97.8195 14.3365 96.132 13.7817 94.3522 13.9666C92.9653 14.0591 91.8557 14.7525 91.8557 14.7525V22.8891C91.8557 22.8891 92.9884 23.675 94.6758 23.7213C97.0567 23.7906 97.8195 22.9353 97.8195 18.5203ZM103.436 18.1505C103.436 26.079 100.871 28.3443 96.3863 28.3443C92.5954 28.3443 90.5613 26.4257 90.5613 26.4257C90.5613 26.4257 90.4688 27.489 90.3532 27.6277C90.2839 27.7664 90.1683 27.8126 90.0296 27.8126H86.6086C86.3774 27.8126 86.1694 27.6277 86.1694 27.4197L86.2156 1.73867C86.2156 1.53063 86.4005 1.34571 86.6086 1.34571H91.5321C91.7402 1.34571 91.9251 1.53063 91.9251 1.73867V10.4531C91.9251 10.4531 93.8205 9.228 96.5944 9.228L96.5712 9.18177C99.3451 9.18177 103.436 10.222 103.436 18.1505ZM83.28 9.80589H78.4258C78.1715 9.80589 78.0328 9.99081 78.0328 10.2451V22.8198C78.0328 22.8198 76.7615 23.7213 75.0278 23.7213C73.2942 23.7213 72.7857 22.9353 72.7857 21.2017V10.222C72.7857 10.0139 72.6007 9.829 72.3927 9.829H67.4461C67.238 9.829 67.0531 10.0139 67.0531 10.222V22.0338C67.0531 27.1192 69.8963 28.3905 73.8027 28.3905C77.0158 28.3905 79.6278 26.6107 79.6278 26.6107C79.6278 26.6107 79.7434 27.5121 79.8127 27.6508C79.8589 27.7664 80.0207 27.8589 80.1825 27.8589H83.28C83.5342 27.8589 83.6729 27.674 83.6729 27.4659L83.7192 10.1988C83.7192 9.99081 83.5342 9.80589 83.28 9.80589ZM28.4969 9.78277H23.5734C23.3653 9.78277 23.1804 9.99081 23.1804 10.2451V27.2116C23.1804 27.674 23.4809 27.8358 23.8738 27.8358H28.312C28.7743 27.8358 28.8899 27.6277 28.8899 27.2116V10.1757C28.8899 9.96769 28.7049 9.78277 28.4969 9.78277ZM26.0698 1.96982C24.2899 1.96982 22.8799 3.37985 22.8799 5.15972C22.8799 6.9396 24.2899 8.34963 26.0698 8.34963C27.8034 8.34963 29.2135 6.9396 29.2135 5.15972C29.2135 3.37985 27.8034 1.96982 26.0698 1.96982ZM64.1868 1.39194H59.3095C59.1015 1.39194 58.9165 1.57686 58.9165 1.7849V11.239H51.2654V1.7849C51.2654 1.57686 51.0805 1.39194 50.8724 1.39194H45.9489C45.7409 1.39194 45.5559 1.57686 45.5559 1.7849V27.4659C45.5559 27.674 45.764 27.8589 45.9489 27.8589H50.8724C51.0805 27.8589 51.2654 27.674 51.2654 27.4659V16.4862H58.9165L58.8703 27.4659C58.8703 27.674 59.0552 27.8589 59.2633 27.8589H64.1868C64.3948 27.8589 64.5798 27.674 64.5798 27.4659V1.7849C64.5798 1.57686 64.3948 1.39194 64.1868 1.39194ZM20.5684 12.7646V26.0328C20.5684 26.1252 20.5453 26.287 20.4297 26.3333C20.4297 26.3333 17.5403 28.3905 12.7785 28.3905C7.02285 28.3905 0.203857 26.5875 0.203857 14.7063C0.203857 2.82509 6.16759 0.374873 11.9926 0.397988C17.0317 0.397988 19.0659 1.53063 19.3895 1.73867C19.482 1.85425 19.5282 1.94671 19.5282 2.06228L18.5573 6.1768C18.5573 6.38483 18.3493 6.6391 18.095 6.56975C17.2629 6.31549 16.0147 5.80695 13.079 5.80695C9.6811 5.80695 6.02889 6.77779 6.02889 14.4289C6.02889 22.0801 9.49618 22.9816 11.9926 22.9816C14.1192 22.9816 14.882 22.7273 14.882 22.7273V17.4108H11.4841C11.2298 17.4108 11.0449 17.2259 11.0449 17.0178V12.7646C11.0449 12.5566 11.2298 12.3717 11.4841 12.3717H20.1292C20.3835 12.3717 20.5684 12.5566 20.5684 12.7646Z" fill="#757385"/>
</g>
</svg>
