<svg width="169" height="26" viewBox="0 0 169 26" fill="none" xmlns="http://www.w3.org/2000/svg">
<path id="Vector" d="M88.3035 0.920044C93.6107 0.920044 98.2522 3.41367 99.9217 8.0856L94.2718 9.72343C92.8837 7.01284 90.5977 6.30026 88.3035 6.30026C84.4292 6.30026 81.4817 9.36753 81.4817 13.3921C81.4817 17.4174 84.4983 20.5209 88.4787 20.5209C91.6061 20.5209 93.8796 18.8831 94.7697 16.2463H87.4828V11.2551H100.595C100.688 11.9759 100.736 12.7021 100.738 13.4287C100.738 20.6642 95.5861 25.8684 88.4096 25.8684C81.2328 25.8684 75.5825 20.4023 75.5825 13.3925C75.5825 6.38221 81.159 0.920434 88.3035 0.920434V0.920044ZM51.5497 6.79586C55.9711 6.79586 58.8979 8.81847 59.6124 11.906L54.4484 12.9335C54.2728 11.8323 53.2234 10.8415 51.4763 10.8415C49.9575 10.8415 49.1942 11.4799 49.0553 12.2252C48.9616 12.7127 49.1942 13.1177 50.8067 13.4537C51.2273 13.5446 51.9883 13.7011 52.7469 13.8553L52.9631 13.899C54.005 14.1105 54.9791 14.3052 54.9791 14.3052C58.339 15.0139 59.8777 17.0365 59.8777 19.6612C59.8777 23.5999 56.4811 25.6596 51.8111 25.6596C47.6387 25.6596 44.0544 24.1322 43.4628 20.48L49.0022 19.3541C49.2473 20.8811 50.6353 21.4505 52.1499 21.4505C53.6644 21.4505 54.8238 20.8074 54.8565 20.0296C54.9096 18.8503 53.9871 18.1502 52.6806 17.8962C51.7783 17.7245 49.0717 17.1879 49.0717 17.1879C45.7816 16.5862 43.9076 15.632 43.9076 12.8274C43.9076 9.17476 47.0549 6.79586 51.5497 6.79586ZM110.548 6.49304C115.561 6.50084 118.721 9.03154 118.721 13.593V24.9263H113.251V23.6077C111.764 24.8634 109.864 25.5242 107.919 25.4625C103.943 25.4625 101.277 23.1453 101.277 19.6156C101.277 16.0863 103.943 13.8506 108.691 13.8506H113.239V13.4943C113.257 13.1596 113.205 12.8249 113.085 12.5117C112.966 12.1986 112.781 11.9142 112.545 11.677C112.308 11.4402 112.025 11.2562 111.712 11.1368C111.4 11.0174 111.066 10.9654 110.732 10.9843C109.026 10.9843 108.029 11.6598 107.747 13.2282L102.383 12.1226C103.163 8.66667 106.29 6.49265 110.548 6.49265V6.49304ZM69.4714 1.04726V7.03742H74.7294V11.5416H69.5002V17.7651C69.5002 19.616 70.3861 20.3652 71.8799 20.3652C72.7876 20.3336 73.675 20.0893 74.4723 19.653L75.7663 24.1447C74.2891 25.0061 72.6101 25.461 70.9 25.4629C66.4587 25.4629 63.7848 23.0391 63.7848 18.3547V11.5618H60.5595V7.0581H63.7848V2.27534L69.4714 1.04726ZM128.498 1.04726V7.03742H133.757V11.5416H128.49V17.7651C128.49 19.616 129.38 20.3652 130.87 20.3652C131.78 20.334 132.668 20.0901 133.467 19.653L134.781 24.1447C133.305 25.0048 131.628 25.4595 129.919 25.4629C125.478 25.4629 122.816 23.0391 122.816 18.3344V11.5618H119.583V7.0581H122.816V2.27534L128.498 1.04726ZM33.3626 6.5625C38.6577 6.5746 43.1361 10.3502 43.1361 15.9801C43.1361 21.6468 38.6453 25.4262 33.3626 25.4262C27.9617 25.4262 23.4833 21.6468 23.4833 15.9801C23.4833 10.3131 27.9742 6.5625 33.3626 6.5625ZM143.77 6.5625C149.065 6.5746 153.54 10.3502 153.54 15.9801C153.54 21.6468 149.049 25.4262 143.77 25.4262C138.37 25.4262 133.891 21.6468 133.891 15.9801C133.891 10.3131 138.382 6.5625 143.77 6.5625ZM6.1825 1.04726V10.3502H16.2046V1.04687H22.0301V24.9267H16.2046V15.4888H6.1825V24.9263H0.319946V1.04726H6.1825ZM166.791 6.77128C167.224 6.76579 167.655 6.81962 168.073 6.93128L167.824 12.6225H166.791C162.814 12.6225 160.647 14.6697 160.647 19.3252V24.9267H154.96V8.26589L160.647 7.03742V10.4563C161.925 8.31896 163.88 6.77128 166.791 6.77128ZM113.251 17.4622H109.34C107.919 17.4622 107.033 18.2115 107.033 19.3171C107.033 20.4226 108.025 21.168 109.519 21.168C111.475 21.1843 113.251 19.8657 113.251 17.8716V17.4622ZM33.3587 11.3492C32.764 11.356 32.1767 11.4821 31.6315 11.7199C31.0864 11.9577 30.5945 12.3025 30.1849 12.7337C29.7745 13.1659 29.4546 13.6757 29.2439 14.2331C29.0332 14.7906 28.936 15.3846 28.958 15.9801C28.958 18.7973 31.052 20.615 33.3626 20.615C35.5675 20.615 37.6576 18.7973 37.6576 15.9801C37.6576 13.1997 35.5632 11.3492 33.3587 11.3492ZM143.77 11.3492C143.175 11.355 142.587 11.4802 142.041 11.7175C141.495 11.9548 141.002 12.2993 140.591 12.7306C140.18 13.1629 139.859 13.6731 139.648 14.2312C139.437 14.7893 139.34 15.3839 139.362 15.9801C139.362 18.7973 141.46 20.615 143.77 20.615C145.971 20.615 148.069 18.7973 148.069 15.9801C148.069 13.1997 145.971 11.3492 143.77 11.3492Z" fill="#757385"/>
</svg>
