<svg width="184" height="40" viewBox="0 0 184 40" fill="none" xmlns="http://www.w3.org/2000/svg">
<g id="Group 7">
<path id="Vector" d="M184.004 18.5279V15.2996H179.995V10.2811L179.86 10.3227L176.094 11.4746L176.02 11.4972V15.3H170.077V13.182C170.077 12.1958 170.298 11.4406 170.732 10.9371C171.164 10.4397 171.781 10.1868 172.568 10.1868C173.135 10.1868 173.721 10.3202 174.311 10.5835L174.459 10.6491V7.24938L174.389 7.22392C173.839 7.02597 173.09 6.92627 172.162 6.92627C170.993 6.92627 169.931 7.18089 169.004 7.68511C168.077 8.19004 167.348 8.91086 166.837 9.82785C166.328 10.7434 166.069 11.801 166.069 12.9711V15.3H163.278V18.5283H166.069V32.1282H170.077V18.5279H176.02V27.1706C176.02 30.7303 177.699 32.5345 181.01 32.5345C181.554 32.5345 182.127 32.4703 182.712 32.3455C183.307 32.2175 183.712 32.0894 183.951 31.9524L184.004 31.9216V28.6632L183.841 28.7708C183.623 28.9164 183.352 29.0344 183.035 29.1222C182.715 29.2119 182.449 29.2571 182.243 29.2571C181.467 29.2571 180.894 29.048 180.537 28.6356C180.177 28.2196 179.995 27.4916 179.995 26.4731V18.5279H184.004ZM154.329 29.2578C152.874 29.2578 151.728 28.7751 150.919 27.8251C150.106 26.8701 149.694 25.5088 149.694 23.7792C149.694 21.995 150.106 20.5982 150.92 19.6264C151.728 18.661 152.864 18.1711 154.296 18.1711C155.686 18.1711 156.792 18.6391 157.584 19.5625C158.38 20.4914 158.784 21.8767 158.784 23.682C158.784 25.5091 158.404 26.9131 157.655 27.852C156.911 28.784 155.792 29.2578 154.329 29.2578ZM154.507 14.8944C151.732 14.8944 149.528 15.7074 147.957 17.3111C146.386 18.9152 145.59 21.1344 145.59 23.9086C145.59 26.5434 146.367 28.6628 147.9 30.2067C149.434 31.7516 151.52 32.5341 154.101 32.5341C156.791 32.5341 158.952 31.7093 160.522 30.0837C162.093 28.4591 162.889 26.2608 162.889 23.5514C162.889 20.8754 162.142 18.7402 160.669 17.2064C159.195 15.6722 157.121 14.8944 154.507 14.8944ZM139.129 14.8944C137.241 14.8944 135.68 15.3771 134.487 16.3289C133.287 17.2864 132.678 18.5426 132.678 20.0624C132.678 20.8525 132.81 21.5543 133.068 22.1496C133.328 22.7467 133.731 23.2724 134.266 23.7139C134.797 24.1514 135.616 24.6101 136.702 25.0766C137.614 25.4521 138.295 25.7699 138.727 26.0202C139.15 26.2655 139.45 26.5122 139.62 26.7525C139.784 26.9874 139.868 27.309 139.868 27.7064C139.868 28.8371 139.021 29.3869 137.279 29.3869C136.633 29.3869 135.895 29.2524 135.088 28.9863C134.286 28.7241 133.53 28.3403 132.845 27.8484L132.678 27.7293V31.5874L132.739 31.616C133.307 31.8778 134.021 32.098 134.864 32.272C135.705 32.4459 136.469 32.5345 137.133 32.5345C139.181 32.5345 140.831 32.0493 142.034 31.0914C143.245 30.1274 143.86 28.8418 143.86 27.2689C143.86 26.1346 143.529 25.162 142.877 24.3773C142.23 23.5991 141.108 22.8848 139.541 22.2532C138.294 21.7526 137.494 21.337 137.165 21.0178C136.847 20.7094 136.686 20.2737 136.686 19.7218C136.686 19.2322 136.885 18.8403 137.294 18.5225C137.706 18.2034 138.28 18.0409 138.999 18.0409C139.667 18.0409 140.35 18.1464 141.029 18.3529C141.709 18.5598 142.305 18.8367 142.802 19.1752L142.966 19.2871V15.6274L142.903 15.6002C142.444 15.4033 141.838 15.2351 141.103 15.0981C140.371 14.9629 139.706 14.8944 139.129 14.8944ZM122.231 29.2574C120.777 29.2574 119.63 28.7751 118.822 27.8251C118.009 26.8701 117.597 25.5091 117.597 23.7792C117.597 21.995 118.009 20.5982 118.823 19.6264C119.631 18.661 120.766 18.1711 122.199 18.1711C123.588 18.1711 124.694 18.6391 125.486 19.5625C126.283 20.4914 126.687 21.8767 126.687 23.682C126.687 25.5091 126.307 26.9131 125.557 27.852C124.813 28.784 123.695 29.2578 122.231 29.2578V29.2574ZM122.41 14.8944C119.635 14.8944 117.43 15.7074 115.859 17.3111C114.289 18.9152 113.493 21.1344 113.493 23.9086C113.493 26.5445 114.27 28.6628 115.803 30.2067C117.336 31.7516 119.423 32.5341 122.004 32.5341C124.694 32.5341 126.854 31.7093 128.425 30.0837C129.995 28.4591 130.792 26.2608 130.792 23.5514C130.792 20.8754 130.045 18.7402 128.571 17.2064C127.096 15.6722 125.024 14.8944 122.41 14.8944H122.41ZM107.409 18.2141V15.2996H103.45V32.1282H107.409V23.5199C107.409 22.056 107.741 20.8536 108.396 19.9452C109.042 19.0476 109.904 18.5932 110.956 18.5932C111.312 18.5932 111.713 18.6516 112.146 18.7682C112.575 18.8837 112.886 19.0092 113.069 19.1412L113.235 19.2617V15.271L113.172 15.2433C112.803 15.0866 112.281 15.0077 111.621 15.0077C110.627 15.0077 109.736 15.3273 108.974 15.9566C108.305 16.5096 107.821 17.2681 107.451 18.2141H107.409H107.409ZM96.3617 14.8944C94.5456 14.8944 92.9258 15.2839 91.5476 16.0513C90.1669 16.8205 89.0993 17.9193 88.3731 19.3162C87.6498 20.7098 87.2829 22.3372 87.2829 24.1525C87.2829 25.7422 87.6386 27.2015 88.3423 28.4875C89.0462 29.7756 90.0432 30.7833 91.3044 31.4819C92.5643 32.1802 94.0199 32.5345 95.6319 32.5345C97.5132 32.5345 99.1194 32.1579 100.407 31.4167L100.459 31.3865V27.7598L100.293 27.8814C99.7004 28.3109 99.0479 28.6507 98.3563 28.8898C97.6566 29.1337 97.0187 29.2574 96.4592 29.2574C94.9064 29.2574 93.6595 28.7711 92.754 27.8133C91.8467 26.8536 91.3869 25.5066 91.3869 23.8111C91.3869 22.1051 91.8668 20.7234 92.8121 19.7035C93.7542 18.6871 95.0032 18.1715 96.5248 18.1715C97.8259 18.1715 99.0936 18.6118 100.293 19.4822L100.459 19.6027V15.7816L100.405 15.7511C99.9543 15.4987 99.3386 15.29 98.574 15.1318C97.8134 14.974 97.0689 14.8944 96.3613 14.8944H96.3617ZM84.556 15.2996H80.5975V32.1282H84.5563V15.3L84.556 15.2996ZM82.6173 8.13087C81.966 8.13087 81.398 8.35249 80.9307 8.79216C80.462 9.23326 80.2242 9.78804 80.2242 10.4429C80.2242 11.0873 80.4591 11.6321 80.9235 12.061C81.3847 12.4888 81.9545 12.7058 82.6173 12.7058C83.28 12.7058 83.852 12.4888 84.3189 12.0617C84.7887 11.6321 85.0272 11.0873 85.0272 10.4429C85.0272 9.81064 84.7952 9.26123 84.3383 8.80973C83.8818 8.35931 83.303 8.13087 82.6173 8.13087ZM72.7409 14.0581V32.1282H76.7804V8.6462H71.1896L64.0825 26.0876L57.1855 8.6462H51.3666V32.1282H55.1629V14.0563H55.2934L62.5763 32.1278H65.4413L72.61 14.0581H72.7406H72.7409Z" fill="#757385"/>
<path id="Vector_2" d="M19.0584 19.4213H0.436401V0.799316H19.0584V19.4213Z" fill="#757385"/>
<path id="Vector_3" d="M39.619 19.4213H20.9974V0.799316H39.619V19.4213Z" fill="#757385"/>
<path id="Vector_4" d="M19.0576 39.989H0.436401V21.3674H19.0576V39.989Z" fill="#757385"/>
<path id="Vector_5" d="M39.619 39.989H20.9974V21.3674H39.619V39.989Z" fill="#757385"/>
</g>
</svg>
