<svg width="45" height="43" viewBox="0 0 45 43" fill="none" xmlns="http://www.w3.org/2000/svg">
<g id="Group 39938">
<path id="Path" d="M40.8495 12.5767V30.2079C40.8495 32.5971 38.9113 34.5331 36.5221 34.5331H26.2809L21.4247 41.008C21.4247 41.008 18.8369 37.5569 16.5578 34.5202H6.3274C3.93816 34.5202 2 32.582 2 30.1928V8.64213C2 6.25289 3.93816 4.31689 6.3274 4.31689H32.5875" stroke="#1D63FF" stroke-width="2.5" stroke-linecap="round" stroke-linejoin="round"/>
<path id="Oval" fill-rule="evenodd" clip-rule="evenodd" d="M38.4749 12.9498C42.0509 12.9498 44.9498 10.0509 44.9498 6.47491C44.9498 2.89892 42.0509 0 38.4749 0C34.8989 0 32 2.89892 32 6.47491C32 10.0509 34.8989 12.9498 38.4749 12.9498Z" fill="#35D9A8"/>
</g>
</svg>
