<svg width="24" height="30" viewBox="0 0 24 30" fill="none" xmlns="http://www.w3.org/2000/svg">
<g id="download">
<path id="Ellipse 1219" opacity="0.4" d="M23.3334 18.4167C23.3334 24.6759 18.2593 29.75 12.0001 29.75C5.74085 29.75 0.666748 24.6759 0.666748 18.4167C0.666748 12.1574 5.74085 7.08334 12.0001 7.08334C18.2593 7.08334 23.3334 12.1574 23.3334 18.4167Z" fill="#1D63FF"/>
<path id="Vector 350 (Stroke)" fill-rule="evenodd" clip-rule="evenodd" d="M5.5822 14.832C5.16726 15.247 5.16726 15.9197 5.58219 16.3346L11.2488 22.0013C11.4481 22.2006 11.7183 22.3125 12.0001 22.3125C12.2819 22.3125 12.5522 22.2006 12.7514 22.0013L18.4181 16.3346C18.8331 15.9197 18.8331 15.247 18.4181 14.832C18.0032 14.4171 17.3305 14.4171 16.9155 14.832L13.0626 18.6849L13.0626 1.41667C13.0626 0.82987 12.5869 0.354172 12.0001 0.354172C11.4133 0.354172 10.9376 0.829869 10.9376 1.41667L10.9376 18.6849L7.0848 14.832C6.66987 14.4171 5.99713 14.4171 5.5822 14.832Z" fill="#1D63FF"/>
</g>
</svg>
