<svg width="32" height="32" viewBox="0 0 32 32" fill="none" xmlns="http://www.w3.org/2000/svg">
<g id="Frame 39">
<path id="social/instagram" d="M18.3333 16.455C18.3333 17.9841 17.0741 19.2434 15.545 19.2434C14.0159 19.2434 12.7566 17.9841 12.7566 16.455C12.7566 14.9259 14.0159 13.6667 15.545 13.6667C17.0741 13.6667 18.3333 14.9259 18.3333 16.455ZM19.8624 16.455C19.8624 14.0265 17.8836 12.1376 15.545 12.1376C13.1164 12.1376 11.2275 14.1164 11.2275 16.455C11.2275 18.8836 13.2063 20.7725 15.545 20.7725C17.8836 20.8624 19.8624 18.8836 19.8624 16.455ZM21.0317 11.9577C21.0317 11.418 20.582 10.9683 20.0423 10.9683C19.5026 10.9683 19.0529 11.418 19.0529 11.9577C19.0529 12.4974 19.5026 12.9471 20.0423 12.9471C20.582 12.9471 21.0317 12.4974 21.0317 11.9577ZM15.455 9.5291C16.7143 9.5291 19.3228 9.43915 20.4921 9.88889C20.8519 10.0688 21.1217 10.2487 21.4815 10.5185C21.7513 10.7884 21.9312 11.1481 22.1111 11.5079C22.5608 12.5873 22.4709 15.2857 22.4709 16.545C22.4709 17.8042 22.5608 20.4127 22.1111 21.582C21.9312 21.9418 21.7513 22.2116 21.4815 22.5714C21.2116 22.8413 20.8519 23.0212 20.4921 23.2011C19.4127 23.6508 16.7143 23.5608 15.455 23.5608C14.1958 23.5608 11.5873 23.6508 10.418 23.2011C10.0582 23.0212 9.78836 22.8413 9.42857 22.5714C9.15873 22.3016 8.97884 21.9418 8.79894 21.582C8.34921 20.5026 8.43915 17.8042 8.43915 16.545C8.43915 15.2857 8.34921 12.6772 8.79894 11.5079C8.97884 11.1481 9.15873 10.8783 9.42857 10.5185C9.69841 10.2487 10.0582 10.0688 10.418 9.88889C11.5873 9.43915 14.2857 9.5291 15.455 9.5291ZM24 16.455C24 15.2857 24 14.1164 23.9101 12.9471C23.8201 11.5979 23.5503 10.4286 22.5608 9.34921C21.5714 8.35979 20.4021 8.08995 18.963 8C17.7937 8 16.6243 8 15.455 8C14.2857 8 13.1164 8 11.9471 8.08995C10.5979 8.08995 9.42857 8.44974 8.43915 9.43915C7.44974 10.4286 7.08995 11.5979 7.08995 12.9471C7 14.1164 7 15.2857 7 16.455C7 17.6243 7 18.7937 7.08995 19.963C7.17989 21.3122 7.44974 22.4815 8.43915 23.5608C9.42857 24.5503 10.5979 24.8201 12.037 24.9101C13.2063 25 14.3757 25 15.545 25C16.7143 25 17.8836 25 19.0529 24.9101C20.4021 24.8201 21.5714 24.5503 22.6508 23.5608C23.6402 22.5714 23.9101 21.4021 24 19.963C24 18.7937 24 17.6243 24 16.455Z" fill="#1D63FF"/>
</g>
</svg>
