<svg width="32" height="32" viewBox="0 0 32 32" fill="none" xmlns="http://www.w3.org/2000/svg">
<g id="Frame 38">
<g id="Group 10">
<path id="Vector" d="M24.8705 24.8756V24.8748H24.875V18.3192C24.875 15.1121 24.1846 12.6416 20.4353 12.6416C18.6329 12.6416 17.4233 13.6307 16.9295 14.5684H16.8774V12.941H13.3225V24.8748H17.0241V18.9656C17.0241 17.4098 17.3191 15.9053 19.2459 15.9053C21.1443 15.9053 21.1726 17.6809 21.1726 19.0654V24.8756H24.8705Z" fill="#1D63FF"/>
<path id="Vector_2" d="M7.29492 12.9414H11.001V24.8752H7.29492V12.9414Z" fill="#1D63FF"/>
<path id="Vector_3" d="M9.1465 7C7.96153 7 7 7.96153 7 9.1465C7 10.3315 7.96153 11.3131 9.1465 11.3131C10.3315 11.3131 11.293 10.3315 11.293 9.1465C11.2922 7.96153 10.3307 7 9.1465 7V7Z" fill="#1D63FF"/>
</g>
</g>
</svg>
