<svg width="22" height="23" viewBox="0 0 22 23" fill="none" xmlns="http://www.w3.org/2000/svg">
<g id="Group 3">
<path id="Vector" d="M17.5588 19.0488C16.5654 16.3918 14.0036 14.5 11 14.5C7.99638 14.5 5.4346 16.3918 4.44117 19.0488M17.5588 19.0488C19.6672 17.2154 21 14.5134 21 11.5C21 5.97715 16.5228 1.5 11 1.5C5.47715 1.5 1 5.97715 1 11.5C1 14.5134 2.33285 17.2154 4.44117 19.0488M17.5588 19.0488C15.8031 20.5756 13.5095 21.5 11 21.5C8.49052 21.5 6.19694 20.5756 4.44117 19.0488" stroke="#1D63FF" stroke-width="1.5" stroke-linejoin="round"/>
<circle id="Ellipse 321" cx="3" cy="3" r="3" transform="matrix(1 0 0 -1 8 11.5)" stroke="#1D63FF" stroke-width="1.5" stroke-linejoin="round"/>
</g>
</svg>
