<svg width="23" height="18" viewBox="0 0 23 18" fill="none" xmlns="http://www.w3.org/2000/svg">
<path id="&#226;&#128;&#157;" d="M22.5 18V15.1315C21.3847 14.8924 20.4924 14.4143 19.8232 13.6972C19.0982 12.9801 18.5963 12.0956 18.3175 11.0438C17.9829 9.99203 17.8156 8.82072 17.8156 7.52988H21.6635V0H13.4658V6.74104C13.4658 9.46614 13.9398 11.6175 14.8878 13.1952C15.8359 14.7729 17.007 15.9203 18.4011 16.6374C19.7395 17.3068 21.1058 17.761 22.5 18ZM9.45057 18V15.1315C8.391 14.8924 7.52662 14.4143 6.85741 13.6972C6.13245 12.9801 5.63054 12.0956 5.35171 11.0438C5.01711 9.99203 4.84981 8.82072 4.84981 7.52988H8.69772V0H0.5V6.74104C0.5 9.46614 0.974018 11.6175 1.92205 13.1952C2.81432 14.7729 3.95754 15.9203 5.35171 16.6374C6.74588 17.3068 8.11217 17.761 9.45057 18Z" fill="#97A5FF"/>
</svg>
