<svg width="74" height="74" viewBox="0 0 74 74" fill="none" xmlns="http://www.w3.org/2000/svg">
<circle cx="37" cy="37" r="32" fill="#1D63FF"/>
<circle cx="37" cy="37" r="34.5" stroke="#2E7AFF" stroke-opacity="0.2" stroke-width="5"/>
<path d="M36.1093 24.7454C36.4804 24.0181 37.5196 24.0181 37.8907 24.7454L40.9655 30.7705C41.1108 31.0552 41.3835 31.2533 41.6992 31.3035L48.3796 32.366C49.186 32.4942 49.5071 33.4825 48.9301 34.0602L44.15 38.8464C43.9241 39.0726 43.82 39.3931 43.8698 39.7089L44.9237 46.3907C45.0509 47.1972 44.2102 47.808 43.4825 47.4378L37.4534 44.3707C37.1685 44.2257 36.8315 44.2257 36.5466 44.3707L30.5175 47.4378C29.7898 47.808 28.9491 47.1972 29.0763 46.3907L30.1302 39.7089C30.18 39.3931 30.0759 39.0726 29.85 38.8464L25.0699 34.0602C24.4929 33.4825 24.814 32.4942 25.6204 32.366L32.3008 31.3035C32.6165 31.2533 32.8892 31.0552 33.0345 30.7705L36.1093 24.7454Z" fill="white"/>
</svg>
