<svg width="145" height="45" viewBox="0 0 145 45" fill="none" xmlns="http://www.w3.org/2000/svg">
<g id="Group 8">
<path id="Vector" d="M22.6524 0C10.2846 0 0.257812 10.0265 0.257812 22.3943C0.257812 34.7627 10.2846 44.7883 22.6524 44.7883C35.0216 44.7883 45.0473 34.7627 45.0473 22.3943C45.0473 10.0273 35.0216 0.00112458 22.6521 0.00112458L22.6524 0ZM32.9226 32.299C32.827 32.4556 32.7015 32.5919 32.5532 32.6999C32.405 32.8079 32.2368 32.8857 32.0585 32.9286C31.8801 32.9716 31.695 32.979 31.5138 32.9504C31.3326 32.9218 31.1588 32.8577 31.0024 32.7618C25.7444 29.55 19.1252 28.8227 11.3299 30.6037C10.9689 30.6858 10.5901 30.6212 10.2768 30.4242C9.9634 30.2271 9.7411 29.9137 9.65873 29.5528C9.61768 29.3741 9.61228 29.1891 9.64285 29.0083C9.67341 28.8275 9.73934 28.6546 9.83686 28.4993C9.93437 28.344 10.0616 28.2095 10.2111 28.1035C10.3607 27.9975 10.5297 27.922 10.7085 27.8814C19.2393 25.9322 26.5566 26.7714 32.4598 30.3791C32.6164 30.4747 32.7525 30.6003 32.8605 30.7486C32.9684 30.8969 33.0461 31.065 33.0891 31.2433C33.132 31.4217 33.1394 31.6067 33.1108 31.7879C33.0822 31.9691 33.0181 32.1429 32.9223 32.2993L32.9226 32.299ZM35.6638 26.2013C35.158 27.0228 34.0832 27.2823 33.2619 26.7768C27.2426 23.0769 18.0664 22.0052 10.9464 24.1666C10.5032 24.3008 10.0248 24.2536 9.61636 24.0355C9.20788 23.8174 8.90259 23.4462 8.7675 23.0033C8.6339 22.5601 8.68142 22.0821 8.89965 21.6739C9.11788 21.2658 9.48901 20.9608 9.93172 20.8258C18.065 18.3579 28.1758 19.5533 35.0885 23.8011C35.9095 24.3066 36.169 25.3817 35.6635 26.2016L35.6638 26.2013ZM35.8988 19.8516C28.6815 15.5647 16.7728 15.1706 9.88168 17.2623C8.77509 17.598 7.60497 16.9733 7.26984 15.8667C7.10862 15.3351 7.16509 14.7612 7.42685 14.2712C7.6886 13.7812 8.13421 13.4153 8.66573 13.2537C16.5763 10.8522 29.7268 11.3161 38.0366 16.2493C38.2735 16.3894 38.4803 16.5749 38.6454 16.7951C38.8104 17.0152 38.9304 17.2658 38.9985 17.5324C39.0665 17.799 39.0813 18.0765 39.042 18.3488C39.0027 18.6211 38.91 18.8831 38.7693 19.1195C38.1811 20.1148 36.8921 20.4429 35.8999 19.8519H35.8988V19.8516ZM61.1861 20.6731C57.3192 19.751 56.6321 19.1041 56.6321 17.7442C56.6321 16.4593 57.8407 15.5948 59.6403 15.5948C61.384 15.5948 63.1116 16.2516 64.9247 17.603C64.9782 17.6438 65.0476 17.6601 65.1145 17.6494C65.1482 17.6446 65.1805 17.633 65.2095 17.6152C65.2385 17.5975 65.2636 17.574 65.2832 17.5462L67.1711 14.8849C67.2084 14.8322 67.2242 14.7672 67.2153 14.7032C67.2063 14.6392 67.1733 14.581 67.123 14.5405C64.965 12.8095 62.5367 11.968 59.6966 11.968C55.5221 11.968 52.6047 14.4733 52.6047 18.0582C52.6047 21.9023 55.1209 23.2636 59.4694 24.3142C63.1679 25.1664 63.7934 25.8802 63.7934 27.1566C63.7934 28.5713 62.5311 29.451 60.499 29.451C58.2419 29.451 56.3993 28.6891 54.3402 26.9078C54.2889 26.8645 54.2228 26.8425 54.1558 26.8465C54.1224 26.8488 54.0897 26.8577 54.0598 26.8729C54.0299 26.888 54.0034 26.9089 53.9817 26.9345L51.8639 29.4536C51.8214 29.5041 51.8001 29.5691 51.8046 29.635C51.8091 29.7009 51.8391 29.7624 51.8881 29.8067C54.284 31.9462 57.2309 33.0747 60.4132 33.0747C64.9115 33.0747 67.8183 30.6169 67.8183 26.8116C67.8262 23.6007 65.9037 21.8225 61.1942 20.6768L61.1861 20.6731ZM77.9963 16.8597C76.0468 16.8597 74.4477 17.6278 73.1266 19.2016V17.4304C73.1266 17.2904 73.0141 17.1765 72.8752 17.1765H69.4121C69.3452 17.1769 69.2811 17.2038 69.234 17.2514C69.1869 17.2989 69.1605 17.3632 69.1608 17.4301V37.1128C69.1608 37.2517 69.2732 37.3667 69.4121 37.3667H72.8752C72.9422 37.3661 73.0062 37.3391 73.0533 37.2916C73.1004 37.244 73.1267 37.1797 73.1266 37.1128V30.9003C74.4477 32.3792 76.0468 33.1039 77.996 33.1039C81.62 33.1039 85.2889 30.315 85.2889 24.9828C85.2942 19.6495 81.625 16.8594 77.9988 16.8594L77.996 16.8597H77.9963ZM81.2615 24.9828C81.2615 27.6967 79.5901 29.5927 77.1939 29.5927C74.8272 29.5927 73.0408 27.6112 73.0408 24.9828C73.0408 22.3541 74.8272 20.3729 77.1939 20.3729C79.5499 20.3729 81.2615 22.3108 81.2615 24.9825V24.9828ZM94.6887 16.8597C90.0222 16.8597 86.3665 20.4527 86.3665 25.041C86.3665 29.5795 89.9981 33.1335 94.6325 33.1335C99.3149 33.1335 102.981 29.5528 102.981 24.9828C102.981 20.4283 99.3391 16.8605 94.6887 16.8605V16.8597ZM94.6887 29.6194C92.207 29.6194 90.3352 27.6244 90.3352 24.9814C90.3352 22.3263 92.1429 20.3993 94.6325 20.3993C97.1301 20.3993 99.0127 22.3935 99.0127 25.0393C99.0127 27.6942 97.1943 29.6194 94.6887 29.6194ZM112.945 17.1765H109.135V13.2813C109.135 13.1415 109.022 13.0277 108.883 13.0277H105.42C105.353 13.0278 105.288 13.0546 105.241 13.1021C105.193 13.1496 105.166 13.214 105.166 13.2813V17.1765H103.503C103.436 17.1769 103.372 17.2038 103.324 17.2514C103.277 17.2989 103.251 17.3632 103.251 17.4301V20.4058C103.251 20.4727 103.277 20.537 103.324 20.5846C103.372 20.6322 103.436 20.6592 103.503 20.6596H105.166V28.3602C105.166 31.4702 106.714 33.048 109.771 33.048C111.012 33.048 112.041 32.791 113.012 32.2403C113.051 32.2188 113.084 32.187 113.107 32.1484C113.129 32.1098 113.141 32.0657 113.14 32.021V29.1862C113.14 29.1433 113.129 29.1011 113.108 29.0637C113.087 29.0263 113.057 28.9949 113.02 28.9725C112.984 28.9491 112.942 28.9358 112.898 28.9339C112.855 28.932 112.812 28.9415 112.774 28.9616C112.108 29.2961 111.464 29.451 110.741 29.451C109.632 29.451 109.134 28.9455 109.134 27.817V20.6613H112.945C113.012 20.661 113.076 20.634 113.123 20.5864C113.17 20.5388 113.197 20.4744 113.196 20.4074V17.4318C113.198 17.3986 113.192 17.3655 113.18 17.3346C113.168 17.3036 113.15 17.2754 113.127 17.2517C113.103 17.2279 113.075 17.2092 113.045 17.1965C113.014 17.1838 112.981 17.1775 112.948 17.1779L112.945 17.1765H112.945ZM126.22 17.1917V16.7132C126.22 15.3058 126.76 14.6783 127.969 14.6783C128.691 14.6783 129.271 14.8217 129.921 15.0381C129.96 15.0509 130 15.0544 130.04 15.0483C130.079 15.0423 130.117 15.0268 130.15 15.0031C130.182 14.9795 130.208 14.9485 130.226 14.9126C130.244 14.8767 130.254 14.8371 130.253 14.7969L130.253 11.8795C130.254 11.825 130.236 11.7718 130.204 11.7279C130.172 11.684 130.126 11.6518 130.074 11.6363C129.389 11.4322 128.512 11.223 127.196 11.223C124.001 11.223 122.308 13.0237 122.308 16.4287V17.1614H120.645C120.577 17.1615 120.513 17.1882 120.465 17.2358C120.418 17.2833 120.391 17.3477 120.39 17.4149V20.4058C120.39 20.5455 120.506 20.6596 120.645 20.6596H122.308V32.5343C122.308 32.676 122.423 32.7885 122.562 32.7885H126.022C126.164 32.7885 126.276 32.676 126.276 32.5343V20.6605H129.51L134.462 32.5343C133.9 33.7807 133.347 34.0292 132.593 34.0292C131.983 34.0292 131.339 33.8476 130.684 33.4866C130.622 33.4552 130.55 33.4484 130.483 33.4677C130.45 33.4789 130.419 33.4967 130.394 33.5202C130.368 33.5437 130.347 33.5722 130.333 33.6041L129.159 36.1794C129.132 36.2379 129.129 36.3045 129.149 36.3656C129.169 36.4267 129.212 36.4778 129.269 36.5083C130.494 37.1715 131.598 37.4549 132.965 37.4549C135.521 37.4549 136.936 36.2623 138.179 33.0587L144.186 17.5384C144.201 17.5 144.207 17.4583 144.202 17.4172C144.198 17.376 144.183 17.3367 144.159 17.3028C144.136 17.2688 144.106 17.241 144.07 17.2217C144.034 17.2025 143.994 17.1925 143.953 17.1926H140.348C140.295 17.1923 140.244 17.2085 140.2 17.239C140.157 17.2695 140.125 17.3127 140.107 17.3627L136.414 27.9081L132.371 17.3556C132.353 17.3078 132.32 17.2666 132.278 17.2375C132.236 17.2084 132.187 17.1927 132.135 17.1926H126.22V17.1917ZM118.524 17.1765H115.061C114.994 17.1768 114.929 17.2036 114.882 17.2511C114.834 17.2986 114.807 17.3629 114.807 17.4301V32.5343C114.807 32.676 114.922 32.7885 115.061 32.7885H118.524C118.663 32.7885 118.778 32.676 118.778 32.5343V17.4313C118.778 17.3979 118.772 17.3648 118.759 17.3339C118.746 17.303 118.727 17.275 118.704 17.2514C118.68 17.2278 118.652 17.2091 118.621 17.1964C118.59 17.1837 118.557 17.1772 118.524 17.1774V17.1765ZM116.812 10.2986C115.44 10.2986 114.328 11.4091 114.328 12.7806C114.328 13.1068 114.392 13.4298 114.517 13.7313C114.642 14.0327 114.825 14.3065 115.056 14.5372C115.286 14.7679 115.56 14.9509 115.862 15.0757C116.163 15.2006 116.486 15.2648 116.812 15.2648C118.184 15.2648 119.294 14.1531 119.294 12.7806C119.294 12.1224 119.032 11.4912 118.567 11.0258C118.102 10.5604 117.47 10.2988 116.812 10.2986Z" fill="#757385"/>
</g>
</svg>
