<svg width="32" height="32" viewBox="0 0 32 32" fill="none" xmlns="http://www.w3.org/2000/svg">
<g id="Frame 37">
<path id="Shape" fill-rule="evenodd" clip-rule="evenodd" d="M6.00011 21C6.0001 21 6.0001 21 6.00009 21C6.00008 21 6.00008 21 6.00007 21C6.00005 21 6.00005 21 6.00006 21C6.00007 20.9999 6.00007 20.9999 6.00007 20.9999C6.00005 20.9999 6.00003 20.9999 6.00002 20.9999C5.99998 20.9998 6 20.9998 6.00005 20.9997L8.13669 20.0501C8.45005 19.9108 8.53312 19.5037 8.31831 19.2364C5.8129 16.1186 5.61251 11.9453 7.56094 8.67131C7.75018 8.3533 8.20721 8.37949 8.40721 8.69084C9.58371 10.5223 11.4139 12.1448 13.4102 12.8274C13.7102 12.93 14.0086 12.7014 14.0495 12.3869C14.3835 9.81727 16.2671 8 19 8C20.8829 8 22.0382 8.67385 22.8464 9.77879C22.9457 9.91447 23.1011 10 23.2692 10H25.0657C25.465 10 25.7032 10.4451 25.4817 10.7773L24.0839 12.874C24.0292 12.9562 24.0001 13.0537 23.9993 13.1524C23.9415 20.0724 19.949 24.9998 13 24.9998C9.0001 24.9998 7.39674 22.9121 6.00011 21Z" fill="#1D63FF"/>
</g>
</svg>
