<svg width="44" height="44" viewBox="0 0 44 44" fill="none" xmlns="http://www.w3.org/2000/svg">
<g id="Group 39946">
<path id="Path" fill-rule="evenodd" clip-rule="evenodd" d="M36.2034 7.84384C32.4401 4.07827 27.4353 2.00229 22.1036 2C11.1133 2 2.17147 10.9372 2.16919 21.923C2.16462 25.4188 3.08143 28.8551 4.82818 31.8845L2 42.2095L12.5674 39.4385C15.4916 41.0298 18.7656 41.8643 22.0945 41.8643H22.1036C33.0894 41.8643 42.0312 32.9248 42.0358 21.939C42.0381 16.6165 39.9666 11.6117 36.2034 7.84384Z" stroke="#1D63FF" stroke-width="2.5" stroke-linecap="round" stroke-linejoin="round"/>
<path id="Path_2" d="M24.5228 25.6725L25.4511 24.7511C26.3039 23.9052 27.6528 23.7977 28.6359 24.4882C29.587 25.1558 30.4467 25.7548 31.2469 26.3127C32.5181 27.1952 32.6713 29.006 31.5761 30.0988L30.7553 30.9196" stroke="#1D63FF" stroke-width="2" stroke-linecap="round" stroke-linejoin="round"/>
<path id="Path_3" d="M13.2056 13.3694L14.0264 12.5486C15.1192 11.4558 16.93 11.609 17.8125 12.8779C18.3681 13.6781 18.9671 14.5377 19.637 15.4888C20.3275 16.472 20.2223 17.8209 19.3741 18.6737L18.4527 19.6019" stroke="#1D63FF" stroke-width="2" stroke-linecap="round" stroke-linejoin="round"/>
<path id="Path_4" d="M30.7552 30.919C27.3692 34.289 21.6785 31.4265 17.1859 26.9316" stroke="#1D63FF" stroke-width="2" stroke-linecap="round" stroke-linejoin="round"/>
<path id="Path_5" d="M17.1906 26.9385C12.698 22.4435 9.8355 16.7552 13.2055 13.3691" stroke="#1D63FF" stroke-width="2.5" stroke-linecap="round" stroke-linejoin="round"/>
<path id="Path_6" d="M18.4531 19.6021C19.1825 20.7521 20.1176 21.8907 21.1738 22.9469L21.1784 22.9515C22.2347 24.0078 23.3733 24.9429 24.5233 25.6722" stroke="#1D63FF" stroke-width="2" stroke-linecap="round" stroke-linejoin="round"/>
</g>
</svg>
